<svg viewBox="0 0 663.94 735">
  <path 
    fill="#f9ab00"
    transform="translate(-43.03 -7.5)" 
    d="M707,650.24c0,50-40.61,92.16-90.6,92.16H605.43c-46.86-6.24-81.23-48.42-79.66-95.28V103.5C524.2,56.63,558.57,16,605.43,8.21,655.42,2,700.72,37.89,707,87.87V650.24Z" />
  <path 
    fill="#e37400"
    transform="translate(-43.03 -7.5)" 
    d="M133.67,561.2a90.6,90.6,0,1,1-90.6,90.6h0C41.51,601.81,83.68,561.2,133.67,561.2Zm239-276.5c-50,3.13-89,45.3-89,95.29V625.25c0,65.6,29.68,106.22,71.85,115.59,50,9.38,96.86-21.87,107.79-71.86,1.56-6.24,1.56-12.49,1.56-18.74V376.87c0-50-40.61-92.17-90.6-92.17Z" />
</svg>