<svg xmlns="http://www.w3.org/2000/svg" viewBox="0 0 1024 1024">
  <path
    fill="#FAF6F6" fill-rule="evenodd" stroke="none" 
    d="M 484.710 171.750 C 459.431 240.449, 456.741 315.602, 477.050 385.735 C 497.910 457.771, 545.927 525.617, 606.258 568.303 C 662.657 608.207, 724.443 629.212, 795 632.468 C 813.043 633.301, 857.212 630.341, 860.918 628.051 C 864.371 625.917, 865.482 571.054, 862.569 546.500 C 857.916 507.276, 847.426 471.349, 830.209 435.676 L 821.607 417.851 818.554 418.404 C 796.551 422.386, 752.168 423.772, 729.500 421.185 C 706.833 418.598, 684.084 414.081, 665.352 408.448 L 657.205 405.998 656.465 392.249 C 654.118 348.600, 662.492 295.889, 678.306 254.773 L 680.893 248.045 673.384 241.273 C 661.998 231.005, 640.085 214.995, 625 205.923 C 587.994 183.668, 547.503 168.599, 505.662 161.511 C 497.511 160.130, 490.517 159, 490.122 159 C 489.726 159, 487.291 164.738, 484.710 171.750 M 190.500 395.033 C 171.137 396.641, 162.083 398.156, 161.588 399.870 C 160.089 405.056, 158.789 434.718, 159.325 451.500 C 160.977 503.296, 172.435 548.938, 195.193 594.381 L 202.144 608.261 207.322 607.610 C 233.486 604.316, 242.476 603.820, 267 604.321 C 293.401 604.860, 305.992 606.146, 327.500 610.503 C 342.873 613.616, 365.231 619.756, 366.055 621.090 C 367.352 623.188, 367.921 653.211, 366.965 669.075 C 365.046 700.921, 359.787 728.506, 350.014 758 C 346.824 767.625, 343.909 776.246, 343.535 777.158 C 342.290 780.200, 371.056 803.323, 394.735 818.314 C 409.017 827.357, 440.216 842.664, 457 848.863 C 479.325 857.110, 519.888 867, 531.383 867 L 534.632 867 539.407 853.750 C 552.034 818.707, 558.582 784.058, 559.674 746.500 C 562.307 655.957, 530.899 572.180, 468.627 503.643 C 432.762 464.170, 382.389 431.337, 329.850 413.188 C 285.409 397.837, 235.312 391.310, 190.500 395.033" />
  <path
    fill="#EE3E1A" fill-rule="evenodd" stroke="none" 
    d="M 0 512.001 L 0 1024.002 512.250 1023.751 L 1024.500 1023.500 1024.751 511.750 L 1025.002 0 512.501 0 L 0 0 0 512.001 M 0.496 512.500 C 0.496 794.100, 0.610 909.151, 0.750 768.168 C 0.890 627.186, 0.890 396.786, 0.750 256.168 C 0.610 115.551, 0.496 230.900, 0.496 512.500 M 484.710 171.750 C 459.431 240.449, 456.741 315.602, 477.050 385.735 C 497.910 457.771, 545.927 525.617, 606.258 568.303 C 662.657 608.207, 724.443 629.212, 795 632.468 C 813.043 633.301, 857.212 630.341, 860.918 628.051 C 864.371 625.917, 865.482 571.054, 862.569 546.500 C 857.916 507.276, 847.426 471.349, 830.209 435.676 L 821.607 417.851 818.554 418.404 C 796.551 422.386, 752.168 423.772, 729.500 421.185 C 706.833 418.598, 684.084 414.081, 665.352 408.448 L 657.205 405.998 656.465 392.249 C 654.118 348.600, 662.492 295.889, 678.306 254.773 L 680.893 248.045 673.384 241.273 C 661.998 231.005, 640.085 214.995, 625 205.923 C 587.994 183.668, 547.503 168.599, 505.662 161.511 C 497.511 160.130, 490.517 159, 490.122 159 C 489.726 159, 487.291 164.738, 484.710 171.750 M 190.500 395.033 C 171.137 396.641, 162.083 398.156, 161.588 399.870 C 160.089 405.056, 158.789 434.718, 159.325 451.500 C 160.977 503.296, 172.435 548.938, 195.193 594.381 L 202.144 608.261 207.322 607.610 C 233.486 604.316, 242.476 603.820, 267 604.321 C 293.401 604.860, 305.992 606.146, 327.500 610.503 C 342.873 613.616, 365.231 619.756, 366.055 621.090 C 367.352 623.188, 367.921 653.211, 366.965 669.075 C 365.046 700.921, 359.787 728.506, 350.014 758 C 346.824 767.625, 343.909 776.246, 343.535 777.158 C 342.290 780.200, 371.056 803.323, 394.735 818.314 C 409.017 827.357, 440.216 842.664, 457 848.863 C 479.325 857.110, 519.888 867, 531.383 867 L 534.632 867 539.407 853.750 C 552.034 818.707, 558.582 784.058, 559.674 746.500 C 562.307 655.957, 530.899 572.180, 468.627 503.643 C 432.762 464.170, 382.389 431.337, 329.850 413.188 C 285.409 397.837, 235.312 391.310, 190.500 395.033" />
</svg>