<svg viewBox="0 0 312.5 312.5">
  <defs id="SvgjsDefs1079"></defs>
  <g fill="#6356e5" id="SvgjsG1080" featurekey="rootContainer" transform="matrix(6.25,0,0,6.25,0,0)">
    <path xmlns="http://www.w3.org/2000/svg" d="M50 13.36V50H0V0h36.28L50 13.36z"></path>
  </g>
  <g fill="#f3f6f6" id="SvgjsG1081" featurekey="symbolFeature-0" transform="matrix(0.08266633648569378,0,0,0.08266633648569378,106.00161302478574,72.0050830790627)">
    <g xmlns="http://www.w3.org/2000/svg">
      <path d="M1168.6,327.5c-57.1-39.5-153-26.2-216-12.4c-43,9.4-85.3,21.6-127.8,32.9c-46.1,12.2-62.5,18.5-103.4-8.2         c-66-43.1-131.5-87.2-197.1-131C641,168.3,757.7,129.4,876.2,94.1c57-17,118.3-42.6,177.4-49.6c38.7-4.5,41.1,12,60.6,41.4         c12.7,19.2,54.6,56.4,66.1,10.1c6.7-27-29.5-54.2-48.3-67.8c-78.5-56.8-177.1-14.8-260.5,11.8C764.4,74.3,658,110.8,551.3,146.5         c-23.5,7.9-59.9,26.9-84.9,22.2c-19.9-3.7-40.7-21.1-59.9-29.5c-48.1-20.9-99.9-31.4-151.2-41.1c-51.7-9.7-102.4-17.7-154.9-7.9         c-33.7,6.3-93.6,17.6-99.6,57.9c-10.8,72.3,87.7,117.2,144.9,119c52.7,1.7,108.6-9.9,160.8-16.7c44.7-5.8,101.3-23.1,146.4-18.6         c41.7,4.2,81.4,46.9,114.8,71.3c43.4,31.7,86.7,63.7,130,95.5c-41,18.4-81.9,37.2-123.1,55.3c-41.4,18.1-56.9,23.2-97.7,4.6         c-76.1-34.7-156.8-66.9-242.8-50.5c-75.9,14.4-51,84.9-1.1,113.9c32.6,18.9,45.9,18.7,81.3,22.7c34.6,4,66.1,27.5,102.1,32.2         c44,5.7,74.4-15.3,115.1-17.2c35.7-1.7,66.6,29.6,93.9,49.3c65.8,47.4,129.5,94.4,209.1,115.8c35.2,9.5,125.4,35.6,133.9-19.9         c3.9-25.2-13.4-58-35.6-68.5c-11.2-5.3-25.5-7.9-37.6-3.3c-25.8,9.7-18.1,13.6-10.4,38.7c-78.4,0-150.6-44.1-213.2-88.4         c-13.5-9.5-67-37.7-61.9-58.9c4.8-20,77.2-41.9,93.5-49.6c43.7-20.8,64.3-31,111.7-18c42.6,11.7,84.7,25.2,127.1,37.2         c72.8,20.6,156.7,31,225.4-11.6C1224.4,447.2,1222.7,364.9,1168.6,327.5z M184.6,233.2c-34.2,1.4-149.2-12.9-146.9-62.6         c2.6-54.5,140.7-48.2,176.2-44.9c36.2,3.3,70.8,13.5,105.3,24.7c27.9,9,82.7,15.1,80.9,46.2C329.4,210.2,256.6,230.2,184.6,233.2z          M297.5,510.3c-28.7-4.9-102.3-12.1-76.6-52c23-35.7,82.1-15.6,113.8-8.9c27.8,5.9,119.4,20.5,114.8,50         C400.4,515.7,348.5,519,297.5,510.3z M1179,412.1c-16.8,61.9-121.8,55.6-168.7,49.4c-35.6-4.8-70.4-15.3-104.8-25.3         c-14.7-4.3-40.8-6.1-52-15.1c-13-10.5-10.3-6.3-9.8-27c71.4-18.3,144-43.6,217.6-50.1C1100.7,340.5,1195.8,350.2,1179,412.1z"></path>
    </g>
  </g>
  <g fill="#f3f6f6" id="SvgjsG1082" featurekey="nameFeature-0" transform="matrix(2.5384578140584297,0,0,2.5384578140584297,48.8923182416795,125.68619333972441)">
    <path d="M2.8 10.84 l0 33.56 c0 0.44 0.36 0.8 0.76 0.8 l4.64 0 c0.44 0 0.76 -0.36 0.76 -0.8 l0 -18.72 l6.92 6.92 l6.92 -6.92 l0 18.72 c0 0.44 0.36 0.8 0.8 0.8 l4.6 0 c0.44 0 0.76 -0.36 0.76 -0.8 l0 -33.56 l-13.08 13.08 z M58.373999999999995 16.2 l0 -4.6 c0 -0.48 -0.36 -0.84 -0.76 -0.84 l-21.88 0 c-0.44 0 -0.8 0.36 -0.8 0.84 l0 3.4 l8.16 9.84 l-8.16 0 l0 19.48 c0 0.44 0.36 0.84 0.8 0.84 l4.68 0 c0.44 0 0.76 -0.4 0.76 -0.84 l0 -13.24 l12.32 0 c0.56 0 0.96 -0.36 0.96 -0.8 l0 -4.68 c0 -0.44 -0.4 -0.76 -0.96 -0.76 l-2.24 0 l-6.52 -7.84 l12.88 0 c0.4 0 0.76 -0.36 0.76 -0.8 z M81.58800000000001 31.880000000000003 l0 4.68 c0 0.44 -0.36 0.76 -0.8 0.76 l-1.08 0 l1.68 6.68 l0.04 0.2 l0 0.08 c0 0.48 -0.32 0.84 -0.76 0.84 l-4.84 0 c-0.32 0 -0.6 -0.24 -0.72 -0.56 l-0.04 -0.12 l-1.76 -7.12 l-6.84 0 l-1.76 7.16 s-0.04 0.04 -0.04 0.08 c-0.08 0.32 -0.4 0.56 -0.72 0.56 l-4.84 0 c-0.4 0 -0.76 -0.36 -0.76 -0.84 l0 -0.16 c0.04 0 0.04 -0.04 0.04 -0.08 l8.12 -32.44 l0.04 -0.24 c0.12 -0.28 0.4 -0.48 0.72 -0.48 l5.24 0 c0.32 0 0.6 0.2 0.72 0.48 l0.04 0.2 l4.88 19.56 l2.64 0 c0.44 0 0.8 0.32 0.8 0.76 z M68.028 31.119999999999997 l3.72 0 l-1.84 -7.4 z"></path>
  </g>
</svg>